<svg xmlns="http://www.w3.org/2000/svg" viewBox="0 0 80 80" fill="none"><defs><linearGradient id="bg" x1="12" y1="5" x2="66" y2="75" gradientUnits="userSpaceOnUse"><stop stop-color="#173f64"/><stop offset="1" stop-color="#0a1527"/></linearGradient><linearGradient id="v" x1="26" y1="20" x2="55" y2="60" gradientUnits="userSpaceOnUse"><stop stop-color="#fff3cf"/><stop offset="1" stop-color="#ffad45"/></linearGradient></defs><rect x="1" y="1" width="78" height="78" rx="21" fill="url(#bg)" stroke="#427fb0" stroke-opacity=".6"/><path d="M40 9 63 20v22c0 13-13 23-23 29-10-6-23-16-23-29V20L40 9Z" fill="#102338" stroke="#f4a343" stroke-width="2"/><path d="m11 30 17 6 5 10-20-8-2-8Zm2 13 19 7 4 8-21-9-2-6Zm56-13-17 6-5 10 20-8 2-8Zm-2 13-19 7-4 8 21-9 2-6Z" fill="#5eb8ff"/><path d="m26 23 14 33 14-33h-9l-5 14-5-14h-9Z" fill="url(#v)"/><path d="m40 62 3 3-3 3-3-3 3-3Z" fill="#ffae47"/></svg>
